<?xml version="1.0" encoding="UTF-8" standalone="no"?><!DOCTYPE svg PUBLIC "-//W3C//DTD SVG 1.1//EN" "http://www.w3.org/Graphics/SVG/1.1/DTD/svg11.dtd"><svg width="100%" height="100%" viewBox="0 0 100 100" version="1.1" xmlns="http://www.w3.org/2000/svg" xmlns:xlink="http://www.w3.org/1999/xlink" xml:space="preserve" style="fill-rule:evenodd;clip-rule:evenodd;stroke-linejoin:round;stroke-miterlimit:2;"><g><path d="M74.873,32.493c-0.517,0 -0.93,-0.295 -1.136,-0.785c-0.207,-0.589 0.206,-1.178 0.826,-1.374c5.885,-1.571 10.325,-4.907 12.803,-9.716c3.305,-6.183 2.582,-12.955 1.033,-16.782c-0.207,-0.491 -0.723,-0.589 -0.826,-0.491c-0.207,0 -0.723,0.098 -0.929,0.687c-1.859,6.085 -6.299,12.562 -11.978,13.445c-4.13,0.589 -7.021,-0.49 -10.429,-1.766c-3.51,-1.276 -7.434,-2.748 -13.733,-2.748c-6.298,0 -10.222,1.472 -13.733,2.748c-3.407,1.276 -6.401,2.355 -10.428,1.766c-5.679,-0.883 -10.119,-7.36 -11.978,-13.445c-0.207,-0.589 -0.723,-0.687 -0.929,-0.687c-0.207,0 -0.723,0 -0.826,0.491c-1.549,3.925 -2.272,10.599 1.032,16.782c2.478,4.809 6.918,8.145 12.804,9.716c0.619,0.196 0.929,0.785 0.826,1.374c-0.207,0.588 -0.826,0.883 -1.446,0.785c-6.505,-1.767 -11.461,-5.496 -14.249,-10.894c-3.511,-6.772 -2.685,-14.23 -1.032,-18.548c0.516,-1.276 1.755,-1.963 3.097,-1.963c1.446,0.098 2.582,0.981 2.995,2.257c1.548,5.201 5.472,11.188 10.119,11.875c3.407,0.491 5.988,-0.393 9.189,-1.668c3.511,-1.276 7.848,-2.945 14.559,-2.945c6.712,0 11.049,1.669 14.559,2.945c3.201,1.177 5.783,2.159 9.19,1.668c4.646,-0.687 8.467,-6.674 10.119,-11.875c0.413,-1.276 1.652,-2.159 3.098,-2.257c1.445,-0.098 2.684,0.687 3.097,1.963c1.756,4.318 2.478,11.776 -1.136,18.548c-2.787,5.398 -7.744,9.127 -14.249,10.894l-0.309,0Z" style="fill-rule:nonzero;"/><path d="M69.193,74.399l-2.271,-0.295c0.826,-5.496 5.576,-11.384 7.641,-13.838c0.31,-0.392 0.516,-0.588 0.619,-0.883c12.288,-16.193 6.609,-25.713 3.511,-28.951l1.755,-1.472c3.408,3.729 9.81,14.23 -3.407,31.699c-0.207,0.196 -0.413,0.491 -0.723,0.883c-1.962,2.356 -6.402,7.851 -7.125,12.857Z" style="fill-rule:nonzero;"/><path d="M31.196,74.399c-0.826,-5.006 -5.266,-10.501 -7.125,-12.857c-0.31,-0.392 -0.516,-0.687 -0.723,-0.883c-13.526,-17.763 -6.711,-28.264 -3.097,-31.994l1.755,1.472c-3.201,3.337 -9.19,12.759 3.304,29.246c0.207,0.196 0.413,0.491 0.62,0.883c2.065,2.454 6.711,8.342 7.64,13.838l-2.374,0.295Z" style="fill-rule:nonzero;"/><path d="M39.662,83.918c-0.619,0 -1.135,-0.491 -1.135,-1.079l0,-3.828c0,-0.589 0.516,-1.079 1.135,-1.079c0.62,0 1.136,0.49 1.136,1.079l0,3.828c0,0.588 -0.516,1.079 -1.136,1.079Z" style="fill-rule:nonzero;"/><path d="M61.553,83.918c-0.62,0 -1.136,-0.491 -1.136,-1.079l0,-3.828c0,-0.589 0.516,-1.079 1.136,-1.079c0.619,0 1.135,0.49 1.135,1.079l0,3.828c0,0.588 -0.516,1.079 -1.135,1.079Z" style="fill-rule:nonzero;"/><path d="M62.482,91.868l-23.852,0c-4.853,0 -8.777,-2.945 -8.777,-6.478c-0.413,-2.159 0,-7.851 0.93,-9.912c1.239,-2.748 3.304,-4.809 5.885,-5.79c2.685,-0.982 5.886,-0.687 9.19,0.883c1.549,0.785 3.201,1.08 4.75,1.08l0,2.159c-1.859,0 -3.821,-0.491 -5.783,-1.374c-2.684,-1.276 -5.163,-1.57 -7.331,-0.785c-1.962,0.687 -3.614,2.355 -4.543,4.514c-0.826,2.061 -0.929,5.987 -0.826,7.949l0.103,0l0,1.178c0,2.356 2.891,4.22 6.505,4.22l23.852,0c3.614,0 6.505,-1.864 6.505,-4.22l0,-1.178l0.103,0c0.104,-1.962 0,-5.986 -0.826,-7.949c-1.135,-2.061 -2.684,-3.631 -4.749,-4.416c-2.169,-0.785 -4.647,-0.491 -7.331,0.785c-1.859,0.883 -3.821,1.374 -5.783,1.374l0,-2.159c1.549,0 3.098,-0.393 4.75,-1.08c3.304,-1.57 6.402,-1.864 9.19,-0.883c2.581,0.981 4.749,2.944 5.885,5.79c0.826,2.061 1.343,7.753 0.93,9.912c0,3.533 -3.924,6.38 -8.777,6.38Z" style="fill-rule:nonzero;"/><path d="M65.27,57.813c-0.62,0 -1.136,-0.491 -1.136,-1.08c0,-1.668 -0.413,-3.238 -1.239,-4.809c-0.516,-0.981 -1.239,-1.766 -1.962,-2.649c-1.342,-1.571 -2.788,-3.337 -3.407,-6.478c-0.517,-2.551 0,-5.005 1.755,-6.968c2.065,-2.355 5.266,-3.434 7.434,-3.434c0.62,0 1.136,0.49 1.136,1.079c0,0.589 -0.516,1.08 -1.136,1.08c-1.652,0 -4.13,0.883 -5.679,2.649c-1.239,1.473 -1.652,3.141 -1.239,5.104c0.517,2.649 1.756,4.023 2.995,5.496c0.722,0.883 1.548,1.864 2.168,3.042c0.929,1.865 1.446,3.827 1.446,5.79c0,0.687 -0.517,1.178 -1.136,1.178Z" style="fill-rule:nonzero;"/><path d="M35.119,57.813c-0.619,0 -1.136,-0.491 -1.136,-1.08c0,-4.318 1.756,-6.575 3.511,-8.636c1.342,-1.57 2.582,-3.141 3.098,-5.692c0.413,-1.963 0,-3.631 -1.239,-5.103c-1.549,-1.767 -4.027,-2.65 -5.679,-2.65c-0.62,0 -1.136,-0.491 -1.136,-1.08c0,-0.589 0.516,-1.079 1.136,-1.079c2.168,0 5.369,1.079 7.434,3.435c1.652,1.962 2.272,4.318 1.755,6.968c-0.619,3.042 -2.168,4.907 -3.51,6.575c-1.652,1.963 -2.995,3.729 -3.098,7.262c0,0.589 -0.516,1.08 -1.136,1.08Z" style="fill-rule:nonzero;"/><path d="M12.745,34.75l-0.309,0c-1.962,-0.491 -5.266,-1.865 -6.609,-3.042c-2.788,-2.454 -2.375,-5.889 -0.722,-8.048c1.652,-2.159 4.853,-3.631 8.26,-1.963c0.516,0.295 0.826,0.982 0.516,1.472c-0.31,0.491 -1.032,0.785 -1.549,0.491c-2.374,-0.981 -4.336,-0.098 -5.472,1.374c-1.033,1.276 -1.446,3.435 0.413,5.103c0.929,0.785 3.82,1.963 5.679,2.552c0.619,0.196 0.929,0.785 0.826,1.374c-0.103,0.392 -0.62,0.687 -1.033,0.687Z" style="fill-rule:nonzero;"/><path d="M87.644,34.75c-0.517,0 -0.93,-0.295 -1.136,-0.785c-0.207,-0.589 0.206,-1.178 0.826,-1.374c1.858,-0.491 4.75,-1.669 5.679,-2.552c1.755,-1.57 1.549,-3.435 0.723,-4.809c-0.826,-1.374 -2.685,-2.551 -4.75,-1.963c-0.62,0.197 -1.239,-0.098 -1.446,-0.686c-0.206,-0.589 0.104,-1.178 0.723,-1.374c2.788,-0.786 5.886,0.392 7.435,2.944c1.548,2.551 1.135,5.496 -1.136,7.458c-1.343,1.178 -4.75,2.552 -6.609,3.043c-0.103,0.098 -0.206,0.098 -0.309,0.098Z" style="fill-rule:nonzero;"/><path d="M50.608,99.228c-6.506,0 -11.772,-3.827 -11.772,-8.44c0,-0.589 0.517,-1.08 1.136,-1.08c0.62,0 1.136,0.491 1.136,1.08c0,3.435 4.234,6.281 9.396,6.281c5.163,0 9.397,-2.846 9.397,-6.281c0,-0.589 0.516,-1.08 1.135,-1.08c0.62,0 1.136,0.491 1.136,1.08c0.103,4.613 -5.163,8.44 -11.564,8.44Z" style="fill-rule:nonzero;"/><path d="M67.438,45.545l-0.31,0c-1.032,-0.196 -1.858,-0.785 -2.375,-1.668c-0.516,-0.883 -0.722,-1.865 -0.413,-2.748c0.207,-0.981 0.827,-1.767 1.756,-2.257c0.929,-0.491 1.962,-0.687 2.891,-0.393c0.619,0.098 1.033,0.785 0.826,1.374c-0.103,0.589 -0.826,0.982 -1.446,0.785c-0.413,-0.098 -0.826,0 -1.239,0.197c-0.309,0.196 -0.619,0.49 -0.722,0.883c-0.104,0.392 0,0.785 0.206,1.178c0.207,0.294 0.516,0.588 0.929,0.687c0.62,0.098 1.033,0.785 0.826,1.373c0.104,0.295 -0.413,0.589 -0.929,0.589Z" style="fill-rule:nonzero;"/><path d="M33.777,45.545c-0.516,0 -1.033,-0.294 -1.136,-0.883c-0.103,-0.589 0.207,-1.178 0.826,-1.374c0.826,-0.196 1.342,-0.981 1.136,-1.766c-0.207,-0.786 -1.033,-1.276 -1.859,-1.08c-0.619,0.098 -1.239,-0.196 -1.445,-0.785c-0.103,-0.589 0.206,-1.178 0.826,-1.374c1.032,-0.196 2.065,-0.098 2.891,0.393c0.929,0.49 1.549,1.275 1.755,2.257c0.517,1.963 -0.826,4.023 -2.891,4.514c0.103,0.098 0,0.098 -0.103,0.098Z" style="fill-rule:nonzero;"/></g></svg>