<?xml version="1.0" encoding="UTF-8" standalone="no"?><!DOCTYPE svg PUBLIC "-//W3C//DTD SVG 1.1//EN" "http://www.w3.org/Graphics/SVG/1.1/DTD/svg11.dtd"><svg width="100%" height="100%" viewBox="0 0 100 125" version="1.1" xmlns="http://www.w3.org/2000/svg" xmlns:xlink="http://www.w3.org/1999/xlink" xml:space="preserve" style="fill-rule:evenodd;clip-rule:evenodd;stroke-linejoin:round;stroke-miterlimit:1.41421;"><g><path d="M74.095,44.658c-0.5,0 -0.9,-0.3 -1.1,-0.8c-0.2,-0.6 0.2,-1.2 0.8,-1.4c5.7,-1.6 10,-5 12.4,-9.9c3.2,-6.3 2.5,-13.2 1,-17.1c-0.2,-0.5 -0.7,-0.6 -0.8,-0.5c-0.2,0 -0.7,0.1 -0.9,0.7c-1.8,6.2 -6.1,12.8 -11.6,13.7c-4,0.6 -6.8,-0.5 -10.1,-1.8c-3.4,-1.3 -7.2,-2.8 -13.3,-2.8c-6.1,0 -9.9,1.5 -13.3,2.8c-3.3,1.3 -6.2,2.4 -10.1,1.8c-5.5,-0.9 -9.8,-7.5 -11.6,-13.7c-0.2,-0.6 -0.7,-0.7 -0.9,-0.7c-0.2,0 -0.7,0 -0.8,0.5c-1.5,4 -2.2,10.8 1,17.1c2.4,4.9 6.7,8.3 12.4,9.9c0.6,0.2 0.9,0.8 0.8,1.4c-0.2,0.6 -0.8,0.9 -1.4,0.8c-6.3,-1.8 -11.1,-5.6 -13.8,-11.1c-3.4,-6.9 -2.6,-14.5 -1,-18.9c0.5,-1.3 1.7,-2 3,-2c1.4,0.1 2.5,1 2.9,2.3c1.5,5.3 5.3,11.4 9.8,12.1c3.3,0.5 5.8,-0.4 8.9,-1.7c3.4,-1.3 7.6,-3 14.1,-3c6.5,0 10.7,1.7 14.1,3c3.1,1.2 5.6,2.2 8.9,1.7c4.5,-0.7 8.2,-6.8 9.8,-12.1c0.4,-1.3 1.6,-2.2 3,-2.3c1.4,-0.1 2.6,0.7 3,2c1.7,4.4 2.4,12 -1.1,18.9c-2.7,5.5 -7.5,9.3 -13.8,11.1c-0.1,0 -0.2,0 -0.3,0Z" style="fill-rule:nonzero;"/><path d="M68.595,87.358l-2.2,-0.3c0.8,-5.6 5.4,-11.6 7.4,-14.1c0.3,-0.4 0.5,-0.6 0.6,-0.9c11.9,-16.5 6.4,-26.2 3.4,-29.5l1.7,-1.5c3.3,3.8 9.5,14.5 -3.3,32.3c-0.2,0.2 -0.4,0.5 -0.7,0.9c-1.9,2.4 -6.2,8 -6.9,13.1Z" style="fill-rule:nonzero;"/><path d="M31.795,87.358c-0.8,-5.1 -5.1,-10.7 -6.9,-13.1c-0.3,-0.4 -0.5,-0.7 -0.7,-0.9c-13.1,-18.1 -6.5,-28.8 -3,-32.6l1.7,1.5c-3.1,3.4 -8.9,13 3.2,29.8c0.2,0.2 0.4,0.5 0.6,0.9c2,2.5 6.5,8.5 7.4,14.1l-2.3,0.3Z" style="fill-rule:nonzero;"/><path d="M39.995,97.058c-0.6,0 -1.1,-0.5 -1.1,-1.1l0,-3.9c0,-0.6 0.5,-1.1 1.1,-1.1c0.6,0 1.1,0.5 1.1,1.1l0,3.9c0,0.6 -0.5,1.1 -1.1,1.1Z" style="fill-rule:nonzero;"/><path d="M61.195,97.058c-0.6,0 -1.1,-0.5 -1.1,-1.1l0,-3.9c0,-0.6 0.5,-1.1 1.1,-1.1c0.6,0 1.1,0.5 1.1,1.1l0,3.9c0,0.6 -0.5,1.1 -1.1,1.1Z" style="fill-rule:nonzero;"/><path d="M62.095,105.158l-23.1,0c-4.7,0 -8.5,-3 -8.5,-6.6c-0.4,-2.2 0,-8 0.9,-10.1c1.2,-2.8 3.2,-4.9 5.7,-5.9c2.6,-1 5.7,-0.7 8.9,0.9c1.5,0.8 3.1,1.1 4.6,1.1l0,2.2c-1.8,0 -3.7,-0.5 -5.6,-1.4c-2.6,-1.3 -5,-1.6 -7.1,-0.8c-1.9,0.7 -3.5,2.4 -4.4,4.6c-0.8,2.1 -0.9,6.1 -0.8,8.1l0.1,0l0,1.2c0,2.4 2.8,4.3 6.3,4.3l23.1,0c3.5,0 6.3,-1.9 6.3,-4.3l0,-1.2l0.1,0c0.1,-2 0,-6.1 -0.8,-8.1c-1.1,-2.1 -2.6,-3.7 -4.6,-4.5c-2.1,-0.8 -4.5,-0.5 -7.1,0.8c-1.8,0.9 -3.7,1.4 -5.6,1.4l0,-2.2c1.5,0 3,-0.4 4.6,-1.1c3.2,-1.6 6.2,-1.9 8.9,-0.9c2.5,1 4.6,3 5.7,5.9c0.8,2.1 1.3,7.9 0.9,10.1c0,3.6 -3.8,6.5 -8.5,6.5Z" style="fill-rule:nonzero;"/><path d="M64.795,70.458c-0.6,0 -1.1,-0.5 -1.1,-1.1c0,-1.7 -0.4,-3.3 -1.2,-4.9c-0.5,-1 -1.2,-1.8 -1.9,-2.7c-1.3,-1.6 -2.7,-3.4 -3.3,-6.6c-0.5,-2.6 0,-5.1 1.7,-7.1c2,-2.4 5.1,-3.5 7.2,-3.5c0.6,0 1.1,0.5 1.1,1.1c0,0.6 -0.5,1.1 -1.1,1.1c-1.6,0 -4,0.9 -5.5,2.7c-1.2,1.5 -1.6,3.2 -1.2,5.2c0.5,2.7 1.7,4.1 2.9,5.6c0.7,0.9 1.5,1.9 2.1,3.1c0.9,1.9 1.4,3.9 1.4,5.9c0,0.7 -0.5,1.2 -1.1,1.2l0,0Z" style="fill-rule:nonzero;"/><path d="M35.595,70.458c-0.6,0 -1.1,-0.5 -1.1,-1.1c0,-4.4 1.7,-6.7 3.4,-8.8c1.3,-1.6 2.5,-3.2 3,-5.8c0.4,-2 0,-3.7 -1.2,-5.2c-1.5,-1.8 -3.9,-2.7 -5.5,-2.7c-0.6,0 -1.1,-0.5 -1.1,-1.1c0,-0.6 0.5,-1.1 1.1,-1.1c2.1,0 5.2,1.1 7.2,3.5c1.6,2 2.2,4.4 1.7,7.1c-0.6,3.1 -2.1,5 -3.4,6.7c-1.6,2 -2.9,3.8 -3,7.4c0,0.6 -0.5,1.1 -1.1,1.1Z" style="fill-rule:nonzero;"/><path d="M14.895,46.958c-0.1,0 -0.2,0 -0.3,0c-1.9,-0.5 -5.1,-1.9 -6.4,-3.1c-2.7,-2.5 -2.3,-6 -0.7,-8.2c1.6,-2.2 4.7,-3.7 8,-2c0.5,0.3 0.8,1 0.5,1.5c-0.3,0.5 -1,0.8 -1.5,0.5c-2.3,-1 -4.2,-0.1 -5.3,1.4c-1,1.3 -1.4,3.5 0.4,5.2c0.9,0.8 3.7,2 5.5,2.6c0.6,0.2 0.9,0.8 0.8,1.4c-0.1,0.4 -0.6,0.7 -1,0.7Z" style="fill-rule:nonzero;"/><path d="M85.495,46.958c-0.5,0 -0.9,-0.3 -1.1,-0.8c-0.2,-0.6 0.2,-1.2 0.8,-1.4c1.8,-0.5 4.6,-1.7 5.5,-2.6c1.7,-1.6 1.5,-3.5 0.7,-4.9c-0.8,-1.4 -2.6,-2.6 -4.6,-2c-0.6,0.2 -1.2,-0.1 -1.4,-0.7c-0.2,-0.6 0.1,-1.2 0.7,-1.4c2.7,-0.8 5.7,0.4 7.2,3c1.5,2.6 1.1,5.6 -1.1,7.6c-1.3,1.2 -4.6,2.6 -6.4,3.1c-0.1,0.1 -0.2,0.1 -0.3,0.1Z" style="fill-rule:nonzero;"/><path d="M50.595,112.658c-6.3,0 -11.4,-3.9 -11.4,-8.6c0,-0.6 0.5,-1.1 1.1,-1.1c0.6,0 1.1,0.5 1.1,1.1c0,3.5 4.1,6.4 9.1,6.4c5,0 9.1,-2.9 9.1,-6.4c0,-0.6 0.5,-1.1 1.1,-1.1c0.6,0 1.1,0.5 1.1,1.1c0.1,4.7 -5,8.6 -11.2,8.6Z" style="fill-rule:nonzero;"/><path d="M66.895,57.958c-0.1,0 -0.2,0 -0.3,0c-1,-0.2 -1.8,-0.8 -2.3,-1.7c-0.5,-0.9 -0.7,-1.9 -0.4,-2.8c0.2,-1 0.8,-1.8 1.7,-2.3c0.9,-0.5 1.9,-0.7 2.8,-0.4c0.6,0.1 1,0.8 0.8,1.4c-0.1,0.6 -0.8,1 -1.4,0.8c-0.4,-0.1 -0.8,0 -1.2,0.2c-0.3,0.2 -0.6,0.5 -0.7,0.9c-0.1,0.4 0,0.8 0.2,1.2c0.2,0.3 0.5,0.6 0.9,0.7c0.6,0.1 1,0.8 0.8,1.4c0.1,0.3 -0.4,0.6 -0.9,0.6Z" style="fill-rule:nonzero;"/><path d="M34.295,57.958c-0.5,0 -1,-0.3 -1.1,-0.9c-0.1,-0.6 0.2,-1.2 0.8,-1.4c0.8,-0.2 1.3,-1 1.1,-1.8c-0.2,-0.8 -1,-1.3 -1.8,-1.1c-0.6,0.1 -1.2,-0.2 -1.4,-0.8c-0.1,-0.6 0.2,-1.2 0.8,-1.4c1,-0.2 2,-0.1 2.8,0.4c0.9,0.5 1.5,1.3 1.7,2.3c0.5,2 -0.8,4.1 -2.8,4.6c0.1,0.1 0,0.1 -0.1,0.1Z" style="fill-rule:nonzero;"/></g></svg>